<?xml version="1.0" encoding="utf-8"?>
<!-- Generator: Adobe Illustrator 19.0.0, SVG Export Plug-In . SVG Version: 6.00 Build 0)  -->
<svg version="1.1" id="图层_1" xmlns="http://www.w3.org/2000/svg" xmlns:xlink="http://www.w3.org/1999/xlink" x="0px" y="0px"
	 viewBox="0 0 160 140" style="enable-background:new 0 0 160 140;" xml:space="preserve">
<style type="text/css">
	.st0{fill:#EC706F;}
	.st1{fill:#F6C354;}
	.st2{fill:#F39800;}
	.st3{fill:#4AAED3;}
	.st4{fill:#33304B;}
	.st5{fill:none;}
</style>
<g id="XMLID_1_">
	<g id="XMLID_232_">
		<path id="XMLID_99_" class="st0" d="M3.2,26.5c0,0,7.3-3,14.5-6.1c1.8-0.8,3.6-1.5,5.3-2.2c1.7-0.7,3.3-1.3,4.7-1.8
			c2.8-1,4.7-1.6,4.7-1.6l0,0.1c0,0-1.8,0.9-4.5,2.1c-1.4,0.6-2.9,1.3-4.6,2c-1.7,0.7-3.6,1.4-5.4,2.1C10.6,23.8,3.3,26.6,3.2,26.5
			L3.2,26.5z"/>
	</g>
	<g id="XMLID_229_">
		<path id="XMLID_97_" class="st0" d="M32.5,14.5c0,0,0.2,2,0.3,4c0,0.5,0.1,1,0.1,1.5c0,0.5,0,0.9-0.1,1.3
			c-0.1,0.4-0.1,0.7-0.2,0.9c-0.1,0.2-0.1,0.3-0.1,0.3h-0.1c0,0,0-0.1-0.1-0.3c-0.1-0.2-0.1-0.5-0.2-0.9c-0.1-0.4-0.1-0.8-0.1-1.3
			c0-0.5,0.1-1,0.1-1.5C32.3,16.4,32.5,14.5,32.5,14.5L32.5,14.5z"/>
	</g>
	<g id="XMLID_226_">
		<path id="XMLID_95_" class="st0" d="M25.7,26.8c0,0,7.1-3.5,14.2-7c1.8-0.9,3.5-1.7,5.2-2.6c1.7-0.8,3.3-1.5,4.6-2.1
			c2.7-1.2,4.6-1.9,4.6-1.9l0,0.1c0,0-1.7,1-4.3,2.3c-1.3,0.7-2.9,1.5-4.5,2.2c-1.7,0.8-3.5,1.6-5.3,2.4
			C32.9,23.6,25.7,26.9,25.7,26.8L25.7,26.8z"/>
	</g>
	<g id="XMLID_223_">
		<path id="XMLID_93_" class="st0" d="M54.4,12.9c0,0,0.2,1.1,0.3,2.3c0,0.3,0.1,0.6,0.1,0.8c0,0.3,0,0.5-0.1,0.7
			c-0.1,0.2-0.1,0.4-0.2,0.5c-0.1,0.1-0.1,0.2-0.1,0.2h-0.1c0,0,0-0.1-0.1-0.2c-0.1-0.1-0.1-0.3-0.2-0.5C54,16.6,54,16.3,54,16
			c0-0.3,0.1-0.6,0.1-0.8C54.2,14,54.3,12.9,54.4,12.9L54.4,12.9z"/>
	</g>
	<g id="XMLID_220_">
		<path id="XMLID_91_" class="st0" d="M3.3,26.5c0,0,0.9,26.4,1.7,52.7c0.2,6.6,0.4,13.2,0.6,19.4c0.1,3.1,0.2,6.1,0.2,8.9
			c0,2.8,0.1,5.5,0.1,8c0.1,4.9,0.2,9.1,0.2,12c0,2.9,0,4.5,0,4.5l-0.1,0c0,0-0.1-1.6-0.2-4.5c-0.2-2.9-0.3-7-0.5-11.9
			c-0.1-2.5-0.2-5.1-0.3-8c-0.1-2.8-0.2-5.8-0.3-8.9c-0.1-6.2-0.3-12.8-0.5-19.4C3.8,52.9,3.2,26.5,3.3,26.5L3.3,26.5z"/>
	</g>
	<g id="XMLID_217_">
		<path id="XMLID_89_" class="st0" d="M25.8,26.5c0,0,1,26.3,1.9,52.6c0.2,6.6,0.5,13.2,0.7,19.3c0.1,3.1,0.2,6.1,0.3,8.9
			c0.1,2.8,0.1,5.5,0.2,8c0.1,4.9,0.2,9,0.2,11.9c0,2.9,0,4.5,0,4.5l-0.1,0c0,0-0.1-1.6-0.2-4.5c-0.2-2.9-0.3-7-0.5-11.9
			c-0.1-2.5-0.2-5.1-0.3-8c-0.1-2.8-0.2-5.8-0.3-8.9c-0.2-6.2-0.4-12.7-0.5-19.3C26.4,52.8,25.7,26.5,25.8,26.5L25.8,26.5z"/>
	</g>
	<g id="XMLID_115_">
		<path id="XMLID_87_" class="st0" d="M5.8,131.7c0,0,0.4,0.1,1,0.3c0.3,0.1,0.7,0.2,1.1,0.2c0.4,0.1,0.9,0.2,1.5,0.2
			c0.5,0,1.1,0.1,1.8,0.1c0.6,0,1.3,0.1,2,0.1c1.4,0,2.8,0,4.3-0.1c1.5-0.1,2.9-0.2,4.3-0.4c1.4-0.1,2.7-0.2,3.8-0.3
			c2.2-0.2,3.7-0.3,3.7-0.3l0,0.1c0,0-0.4,0.1-1,0.3c-0.6,0.2-1.5,0.3-2.6,0.5c-1.1,0.2-2.4,0.4-3.8,0.5c-1.4,0.1-2.9,0.2-4.3,0.2
			c-1.5,0-3,0-4.3-0.1c-0.7,0-1.4-0.1-2-0.1c-0.6,0-1.2-0.2-1.8-0.2c-0.6-0.1-1-0.2-1.5-0.3c-0.4-0.1-0.8-0.2-1.1-0.3
			C6.2,131.9,5.8,131.8,5.8,131.7L5.8,131.7z"/>
	</g>
	<g id="XMLID_100_">
		<path id="XMLID_85_" class="st0" d="M2.8,26.6c0,0,0.4,0.1,1,0.3c0.3,0.1,0.7,0.2,1.1,0.2c0.4,0.1,0.9,0.2,1.5,0.2
			c0.5,0,1.1,0.1,1.8,0.1c0.6,0,1.3,0.1,2,0.1c1.4,0,2.8,0,4.3-0.1c1.5-0.1,2.9-0.2,4.3-0.4c1.4-0.1,2.7-0.2,3.8-0.3
			c2.2-0.2,3.7-0.3,3.7-0.3l0,0.1c0,0-0.4,0.1-1,0.3c-0.6,0.2-1.5,0.3-2.6,0.5c-1.1,0.2-2.4,0.4-3.8,0.5C17.4,28,16,28,14.5,28
			c-1.5,0-3,0-4.3-0.1c-0.7,0-1.4-0.1-2-0.1c-0.6,0-1.2-0.2-1.8-0.2c-0.6-0.1-1-0.2-1.5-0.3C4.4,27.2,4,27.1,3.7,27
			C3.1,26.8,2.8,26.7,2.8,26.6L2.8,26.6z"/>
	</g>
	<g id="XMLID_205_">
		<path id="XMLID_83_" class="st0" d="M29,131.7c0,0,0.5-0.6,1.1-1.2c0.1-0.2,0.3-0.3,0.4-0.5c0.2-0.1,0.3-0.2,0.5-0.3
			c0.2-0.1,0.3-0.1,0.4-0.1c0.1,0,0.2,0,0.2,0l0,0.1c0,0,0,0.1,0,0.2c0,0.1-0.1,0.2-0.2,0.4c-0.1,0.1-0.2,0.3-0.3,0.4
			c-0.2,0.1-0.3,0.2-0.5,0.3C29.8,131.4,29,131.8,29,131.7L29,131.7z"/>
	</g>
</g>
<g id="XMLID_3_">
	<g id="XMLID_211_">
		<path id="XMLID_81_" class="st1" d="M28.3,38.6c0,0,5.8-3.6,11.7-7.2c1.5-0.9,2.9-1.8,4.3-2.6c1.4-0.8,2.7-1.5,3.8-2.2
			c2.3-1.2,3.8-2,3.8-2l0,0.1c0,0-1.4,1-3.6,2.4c-1.1,0.7-2.4,1.5-3.7,2.3c-1.4,0.8-2.9,1.6-4.4,2.5C34.3,35.3,28.4,38.7,28.3,38.6
			L28.3,38.6z"/>
	</g>
	<g id="XMLID_208_">
		<path id="XMLID_79_" class="st1" d="M28.4,38.7c0,0,1,23.7,1.9,47.5c0.2,5.9,0.5,11.9,0.7,17.4c0.1,2.8,0.2,5.5,0.3,8
			c0.1,2.6,0.1,5,0.2,7.2c0.1,4.5,0.2,8.2,0.2,10.8c0,2.6,0.1,4.1,0.1,4.1l-0.1,0c0,0-0.1-1.5-0.2-4.1c-0.2-2.6-0.3-6.3-0.5-10.8
			c-0.1-2.2-0.2-4.6-0.3-7.2c-0.1-2.5-0.2-5.2-0.3-8c-0.2-5.6-0.4-11.5-0.5-17.4C29,62.4,28.3,38.7,28.4,38.7L28.4,38.7z"/>
	</g>
	<g id="XMLID_202_">
		<path id="XMLID_77_" class="st1" d="M54.4,38.7c0,0,1,23.7,1.9,47.5c0.2,5.9,0.5,11.9,0.7,17.4c0.1,2.8,0.2,5.5,0.3,8
			c0.1,2.6,0.1,5,0.2,7.2c0.1,4.5,0.2,8.2,0.2,10.8c0,2.6,0.1,4.1,0.1,4.1l-0.1,0c0,0-0.1-1.5-0.2-4.1c-0.2-2.6-0.3-6.3-0.5-10.8
			c-0.1-2.2-0.2-4.6-0.3-7.2c-0.1-2.5-0.2-5.2-0.3-8c-0.2-5.6-0.4-11.5-0.5-17.4C55,62.4,54.3,38.7,54.4,38.7L54.4,38.7z"/>
	</g>
	<g id="XMLID_196_">
		<path id="XMLID_75_" class="st1" d="M28.3,38.7c0,0-0.1,0.2-0.1,0.3c0,0,0,0.1-0.1,0.1c0,0,0,0,0-0.1c0-0.1,0-0.3,0-0.3v-0.1
			c0,0,0-0.2,0-0.3c0-0.1,0-0.1,0-0.1c0,0,0,0.1,0.1,0.1C28.3,38.5,28.3,38.6,28.3,38.7L28.3,38.7z"/>
	</g>
	<g id="XMLID_193_">
		<path id="XMLID_73_" class="st1" d="M54.3,38.6c0,0,0.1-0.2,0.1-0.3c0,0,0-0.1,0-0.1c0,0,0,0,0,0.1c0,0.1,0,0.3,0,0.3v0.1
			c0,0,0,0.2,0,0.3c0,0.1,0,0.1,0,0.1c0,0,0-0.1,0-0.1C54.4,38.9,54.3,38.7,54.3,38.6L54.3,38.6z"/>
	</g>
	<g id="XMLID_190_">
		<path id="XMLID_71_" class="st1" d="M54.3,38.6c0,0,0.1-0.2,0.1-0.3c0,0,0-0.1,0-0.1c0,0,0,0,0,0.1c0,0.1,0,0.3,0,0.3v0.1
			c0,0,0,0.2,0,0.3c0,0.1,0,0.1,0,0.1c0,0,0-0.1,0-0.1C54.4,38.9,54.3,38.7,54.3,38.6L54.3,38.6z"/>
	</g>
	<g id="XMLID_187_">
		<path id="XMLID_69_" class="st1" d="M54.8,69.4c0,0-6.2,0-12.4-0.2c-1.6,0-3.1,0-4.6-0.1c-1.5,0-2.8-0.1-4-0.2
			c-2.3-0.2-3.9-0.4-3.9-0.4l0-0.1c0,0,1.6-0.1,3.9-0.1c1.2,0,2.5,0,4,0c1.5,0.1,3,0.2,4.6,0.2C48.6,68.9,54.8,69.3,54.8,69.4
			L54.8,69.4z"/>
	</g>
	<g id="XMLID_184_">
		<path id="XMLID_67_" class="st1" d="M29.8,81.6c0,0,6.5,0.1,13,0.2c1.6,0,3.3,0.1,4.8,0.1c1.5,0.1,2.9,0.2,4.2,0.3
			c2.4,0.2,4.1,0.4,4.1,0.4l0,0.1c0,0-1.6,0.1-4.1,0.1c-1.2,0-2.6,0-4.2-0.1c-1.5-0.1-3.2-0.2-4.8-0.3
			C36.3,82.1,29.8,81.7,29.8,81.6L29.8,81.6z"/>
	</g>
	<g id="XMLID_181_">
		<path id="XMLID_65_" class="st1" d="M54.3,38.6c0,0,0.3-0.8,0.6-1.5c0.1-0.2,0.1-0.4,0.2-0.5c0.1-0.2,0.2-0.3,0.3-0.4
			c0.1-0.1,0.2-0.2,0.3-0.2C55.9,36,56,36,56,36l0.1,0c0,0,0,0.1,0,0.2c0,0.1,0,0.2,0,0.4c0,0.2-0.1,0.3-0.2,0.5
			c-0.1,0.1-0.3,0.3-0.4,0.4C54.9,38.1,54.4,38.7,54.3,38.6L54.3,38.6z"/>
	</g>
	<g id="XMLID_178_">
		<path id="XMLID_63_" class="st1" d="M52,24.6c0,0,0.7-0.6,1.4-1.1c0.2-0.1,0.3-0.3,0.5-0.4c0.2-0.1,0.4-0.2,0.5-0.2
			c0.2,0,0.3-0.1,0.4-0.1c0.1,0,0.2,0,0.2,0l0,0.1c0,0,0,0.1-0.1,0.2c-0.1,0.1-0.1,0.2-0.3,0.3c-0.1,0.1-0.3,0.3-0.4,0.4
			c-0.2,0.1-0.4,0.2-0.6,0.2C52.9,24.4,52,24.7,52,24.6L52,24.6z"/>
	</g>
	<g id="XMLID_112_">
		<path id="XMLID_61_" class="st1" d="M31.4,133.1c0,0,0.4,0.1,1.1,0.3c0.4,0.1,0.8,0.2,1.3,0.3c0.5,0.1,1.1,0.2,1.7,0.3
			c0.6,0.1,1.3,0.2,2,0.3c0.7,0.1,1.5,0.1,2.2,0.2c0.8,0.1,1.6,0,2.4,0.1c0.8,0,1.6,0,2.5-0.1c1.7-0.1,3.3-0.3,4.8-0.5
			c0.8-0.1,1.5-0.2,2.2-0.3c0.7-0.1,1.4-0.2,2-0.3c2.5-0.3,4.1-0.6,4.1-0.6l0,0.1c0,0-0.4,0.2-1.1,0.4c-0.3,0.1-0.8,0.2-1.3,0.4
			c-0.5,0.1-1.1,0.3-1.7,0.4c-0.6,0.1-1.3,0.3-2,0.4c-0.7,0.1-1.5,0.2-2.2,0.3c-1.6,0.2-3.2,0.3-4.9,0.3c-0.8,0-1.7,0-2.5,0
			c-0.8-0.1-1.6-0.1-2.4-0.2c-0.8-0.1-1.5-0.1-2.2-0.3c-0.7-0.1-1.4-0.2-2-0.4c-0.6-0.1-1.2-0.3-1.7-0.4c-0.5-0.1-0.9-0.3-1.3-0.4
			C31.8,133.3,31.4,133.2,31.4,133.1L31.4,133.1z"/>
	</g>
	<g id="XMLID_106_">
		<path id="XMLID_59_" class="st1" d="M57.2,133.6c0,0,0.6-0.9,1.3-1.7c0.2-0.2,0.3-0.4,0.5-0.6c0.2-0.2,0.4-0.3,0.6-0.4
			c0.2-0.1,0.3-0.2,0.5-0.2c0.1,0,0.2-0.1,0.2-0.1l0.1,0.1c0,0,0,0.1-0.1,0.2c0,0.1-0.1,0.3-0.2,0.5c-0.1,0.2-0.3,0.4-0.4,0.5
			c-0.2,0.2-0.4,0.3-0.6,0.5C58.1,133,57.3,133.6,57.2,133.6L57.2,133.6z"/>
	</g>
	<g id="XMLID_103_">
		<path id="XMLID_57_" class="st1" d="M28.2,38.8c0,0,0.4,0.1,1.1,0.3c0.4,0.1,0.8,0.2,1.3,0.3c0.5,0.1,1.1,0.2,1.7,0.3
			c0.6,0.1,1.3,0.2,2,0.3c0.7,0.1,1.5,0.1,2.2,0.2c0.8,0.1,1.6,0,2.4,0.1c0.8,0,1.6,0,2.5-0.1c1.7-0.1,3.3-0.3,4.8-0.5
			c0.8-0.1,1.5-0.2,2.2-0.3c0.7-0.1,1.4-0.2,2-0.3c2.5-0.3,4.1-0.6,4.1-0.6l0,0.1c0,0-0.4,0.2-1.1,0.4c-0.3,0.1-0.8,0.2-1.3,0.4
			c-0.5,0.1-1.1,0.3-1.7,0.4c-0.6,0.1-1.3,0.3-2,0.4c-0.7,0.1-1.5,0.2-2.2,0.3c-1.6,0.2-3.2,0.3-4.9,0.3c-0.8,0-1.7,0-2.5,0
			c-0.8-0.1-1.6-0.1-2.4-0.2c-0.8-0.1-1.5-0.1-2.2-0.3c-0.7-0.1-1.4-0.2-2-0.4c-0.6-0.1-1.2-0.3-1.7-0.4c-0.5-0.1-0.9-0.3-1.3-0.4
			C28.6,39,28.2,38.9,28.2,38.8L28.2,38.8z"/>
	</g>
	<g id="XMLID_2_">
		<path id="XMLID_8_" class="st2" d="M38.1,79.9c0,0,0-0.9-0.1-0.9c0-0.6,0-0.7,0-0.8l0,0l0,0c-0.1-1-0.1-1.8-0.1-3
			c0-0.3-0.1-0.6-0.1-0.9c0-0.2,0-0.5,0-0.7c-0.1-0.2,0-0.7-0.1-0.8c0-0.1,0.1-0.3,0.1-0.4c0-0.1-0.2-0.2-0.2-0.5
			c-0.1-0.1-0.3-0.2-0.3-0.3c0-0.1,0.2-0.1,0.3-0.1h0.2c0.1,0,0.2,0,0.3-0.1c0.1,0,0.3,0,0.5,0.1c0.2,0.1,0.2,0.2,0.5,0.2
			c0.1,0,0.6,0,0.7,0c0,0,0.2-0.1,0.2-0.1c0.3,0.1,0.7-0.5,0.9-0.5c0.2,0,0.3,0.2,0.3,0.3c0.2,0.2,0.3,0.3,0.3,0.5
			c0,0.3-0.5,0.2-0.5,0.7c0,0.2,0.1,0.3,0.1,0.4c0,0.3,0,0.5,0,0.6V74c0,0.1-0.1,0.1-0.1,0.2c-0.2,0-0.2,0-0.4-0.1
			c-0.1,0-0.2,0.1-0.3,0.1h-0.2c0,0-0.1,0.1-0.1,0.1c-0.3,0-0.6,0.1-0.9,0.1c-0.1,0-0.4,0.1-0.4,0.1c0,0.2,0,0.4,0,0.6
			c0,0,0,0.1,0.1,0.1c0,0.7,0.1,2.4,0.1,2.9c0,0,0,0.2,0,0.4c0,0.3,0,0.6,0,1c0,0,0,0.2,0,0.3l0,0.1l0,0.4c-0.1,0.2-0.2,0.3-0.4,0.3
			c-0.2-0.1-0.2,0-0.2-0.2C38,80.2,38.1,80,38.1,79.9z M38.6,72.7c0,0.1,0.1,0.2,0.3,0.2c0.3,0,0.7-0.1,1-0.2
			c0.4,0.1,0.4-0.3,0.4-0.5c0-0.1-0.1-0.4-0.3-0.4c-0.1,0-0.6,0.1-0.6,0.1h-0.1c0,0-0.8,0.1-0.8,0.3C38.5,72.3,38.6,72.6,38.6,72.7z
			 M39.3,74.1c0,0,0.2,0,0.2,0c0.1,0,0.4-0.1,0.7-0.1c0.1-0.1,0.1-0.3,0.1-0.7c0,0-0.1-0.1-0.2-0.1c-0.1,0-0.2,0-0.3-0.1
			c-0.2,0-0.4,0.2-0.6,0.2h-0.3c0,0-0.2,0.1-0.3,0.1c-0.1,0,0,0.4-0.1,0.4c0,0.1,0,0.2,0.1,0.3C38.8,74.1,39.2,74.1,39.3,74.1z
			 M42.2,79c0-0.1,0-0.2,0-0.3c0-0.3-0.1-0.6-0.2-0.9l-0.1,0c-0.3,0-0.3,0-0.4,0c-0.1,0-0.3,0.1-0.4,0.1h-0.2
			c-0.4,0-0.2,0.8-0.5,0.8c-0.1-0.1-0.1-0.2-0.2-0.2c0-0.2-0.1-0.3-0.1-0.5c0-0.3,0-0.5,0-0.8c-0.1,0,0-0.7-0.2-0.7
			c-0.3,0-0.3,0.2-0.5,0.2c-0.1,0-0.2-0.1-0.1-0.2l0.4-0.4c0.1,0,0.1-0.2,0.2-0.2l0,0l0.2-0.1c0.2-0.2,0.6-1,0.8-1
			c0.1,0,0.1,0.1,0.2,0.2c0.1,0.1,0.2,0.1,0.2,0.3c0,0.1-0.2,0.1-0.2,0.2c-0.1,0.1-0.1,0.2-0.3,0.2c0,0.2-0.3,0.3-0.3,0.4
			c0,0.2,0.3,0.2,0.4,0.3c0.1,0,0.1,0,0.1,0c0.3-0.1,0.7-0.1,1-0.1c0.1,0,0.1,0,0.2,0c0,0,0.3-0.1,0.4-0.3c0.3,0.1,0.9,0.5,0.9,0.7
			c0,0-0.1,0.3-0.1,0.4c0,0.2,0,0.5,0,0.6c-0.1,0-0.2,0-0.3,0c-0.2,0-0.1,0.1-0.3,0.1c0.1,0.1,0.1,0.3,0.1,0.5c0,0.1,0,0.1,0,0.2
			c0.1,0.5,0,0.8,0.5,0.8c0.1,0,0.2,0,0.3,0c0.1,0,0.1,0,0.2,0.1c0.1-0.1,0.2-0.3,0.3-0.4c0-0.1,0.1-0.4,0.2-0.4
			c0.2,0.1,0.1,0.4,0.1,0.5c0,0.2,0.2,0.4,0.2,0.6c0.1,0-0.1,0.2-0.2,0.2l-0.1,0l0,0h-0.4c0,0-0.1,0-0.2,0v0.1c-0.1,0-0.4,0-0.4,0
			c-0.3,0-0.3-0.1-0.4-0.1c-0.1,0-0.1,0.1-0.2,0.1c-0.2,0-0.2-0.1-0.2-0.1L42.2,79C42.2,79,42.2,79,42.2,79z M40.1,79.7
			c0.1-0.1,0.2-0.3,0.2-0.3c0,0,0.3-0.4,0.3-0.5c0.1-0.2,0.2-0.3,0.3-0.5c0-0.1,0.1-0.3,0.2-0.3c0.1,0,0.3,0.4,0.3,0.4
			c0,0-0.2,0.2-0.5,0.5c-0.5,0.4-0.9,0.9-1.5,1.2c-0.1,0.1-0.2,0.2-0.4,0.2c0,0,0-0.1,0-0.1C39.2,80.5,40,79.8,40.1,79.7z
			 M40.8,77.6c0.5,0,1-0.2,1.6-0.2c0.1-0.1,0.1-0.3,0.1-0.4c0-0.1,0-0.5-0.1-0.5c0,0-0.2,0.1-0.2,0.1c-0.1,0-0.5,0.1-0.6,0.1h-0.1
			c0,0-0.4,0.1-0.6,0.1c-0.2,0-0.2,0.2-0.2,0.3C40.7,77.2,40.7,77.4,40.8,77.6z M41.8,74.9c-0.2,0-0.3,0-0.3-0.2
			c0,0,0.1-0.1,0.1-0.1c0.1,0,0.1,0,0.2,0c0.2,0,0.4,0,0.6-0.1c0,0,0.2-0.1,0.2-0.1c0.4,0,0.3,0.2,0.4,0.5c0,0.1,0.1,0.3,0.1,0.4
			c0.1,0.1,0.6,0.6,1,0.7c0.2,0,0.6,0,0.6,0.2c0,0.2-0.3,0.1-0.3,0.2c-0.4,0-0.4,0.2-0.7,0.2c-0.2,0-0.3-0.2-0.4-0.3
			c-0.1,0-0.2-0.1-0.2-0.2c0-0.1-0.2-0.2-0.2-0.4c-0.1-0.2-0.2-0.3-0.2-0.4v-0.1c0-0.1,0-0.2-0.1-0.3C42.2,74.9,42,74.9,41.8,74.9z
			 M45.1,79.7c0,0,0-0.2,0-0.2c0-0.3,0.1-0.3,0.1-0.4V79C45,79,45,78,45,77.7l0-0.1l0-0.1v-0.6l0-0.1v-0.8l-0.1-0.1v-0.6
			c-0.1-0.2,0-1.1-0.3-1.1c-0.5,0-0.6,0-1.3,0c0,0-0.1,0.1-0.1,0.1c0,0-0.1,0-0.2,0c-0.1,0-0.3,0-0.6,0c-0.2,0-0.4-0.3-0.4-0.6
			c0-0.1,0-0.1,0.1-0.1l0,0c0,0,0-0.1,0.1-0.2l0-0.1c0-0.2,0.1-0.2,0.1-0.3c-0.1,0,0-0.5-0.1-0.6c0-0.2,0-0.3,0-0.5
			c0-0.1,0-0.1-0.1-0.2c0-0.1-0.1-0.2-0.1-0.3c0,0,0-0.1,0-0.1c0-0.2,0.3-0.2,0.4-0.2c0.2,0,0.4,0.1,0.8,0.1c0.2,0,1.1,0.1,1.4-0.1
			c0,0,0.2-0.2,0.3-0.2c0.3-0.1,0.1-0.3,0.4-0.3c0.2,0,0.3,0.1,0.5,0.2c0.1,0.1,0.4,0.1,0.4,0.4c0,0.2,0,0.2-0.2,0.2
			c0,0.1-0.3,0.2-0.4,0.3v0.3c0,0-0.1,0.2-0.1,0.3c0,0.2,0.1,0.5,0.1,0.7c0,0.4,0,0.6,0,0.9c0,0.1,0.1,0.3,0.1,0.7
			c0,0.2,0.1,0.4,0.1,0.5c0,0.3,0.1,1.5,0.1,1.7c0.2,0.4,0.2,0.9,0.2,1.4c0,0,0,0.2,0,0.3c0,0.2,0,0.3,0,0.3c0,0,0.1,0.2,0.1,0.2
			c-0.1,0.1,0.1,0.6-0.1,0.7c0,0.1-0.1,0.2-0.1,0.3c-0.3,0.1-0.1,0.3-0.3,0.3c-0.1,0-0.2-0.1-0.2-0.2V79.7z M43,72.7
			c0.3,0,0.5-0.1,1-0.1c0.1,0,0.7-0.1,0.7-0.3c0-0.1,0-0.2,0-0.3c0-0.1,0-0.1,0-0.2c0-0.2-0.1-0.3-0.3-0.3c-0.5,0-1.5-0.1-1.5,0.5
			C42.9,72.2,42.9,72.7,43,72.7z M43.4,73.9c0,0,0.2,0,0.2,0c0.4,0,0.6-0.1,0.7-0.1c0.3,0,0.3,0,0.4-0.3c0,0,0-0.4-0.1-0.4
			c-0.2,0-0.3,0-0.4-0.1c-0.1,0-0.4,0.1-0.5,0.1h-0.7c0,0-0.1,0-0.1,0.1v0c0,0,0.1,0.3,0.1,0.4c0,0.1,0,0.2,0.1,0.3
			C43.2,73.8,43.4,73.9,43.4,73.9z"/>
	</g>
</g>
<g id="XMLID_6_">
	<g id="XMLID_175_">
		<path id="XMLID_55_" class="st3" d="M54.6,16.3c0,0,1.7,29.6,3.3,59.2c0.4,7.4,0.8,14.8,1.2,21.7c0.2,3.5,0.4,6.8,0.5,10
			c0.1,3.2,0.3,6.2,0.4,9c0.2,5.6,0.5,10.2,0.5,13.4c0.1,3.2,0.2,5.1,0.2,5.1l-0.1,0c0,0-0.1-1.8-0.4-5.1c-0.2-3.2-0.5-7.9-0.8-13.4
			c-0.2-2.8-0.4-5.8-0.5-9c-0.2-3.2-0.3-6.5-0.5-10c-0.3-6.9-0.7-14.3-1.1-21.7C55.9,45.9,54.5,16.3,54.6,16.3L54.6,16.3z"/>
	</g>
	<g id="XMLID_169_">
		<path id="XMLID_53_" class="st3" d="M54.5,16.3c0,0,7.5-2.9,15.1-5.8c1.9-0.7,3.8-1.4,5.5-2.1c1.8-0.7,3.5-1.2,4.9-1.7
			c2.9-0.9,4.8-1.5,4.8-1.5l0,0.1c0,0-1.8,0.8-4.6,2c-1.4,0.6-3,1.2-4.8,1.9c-1.8,0.6-3.7,1.3-5.6,2C62.2,13.7,54.5,16.3,54.5,16.3
			L54.5,16.3z"/>
	</g>
	<g id="XMLID_166_">
		<path id="XMLID_51_" class="st3" d="M77,16.3c0,0,7.5-2.9,15.1-5.8c1.9-0.7,3.8-1.4,5.5-2.1c1.8-0.7,3.5-1.2,4.9-1.7
			c2.9-0.9,4.8-1.5,4.8-1.5l0,0.1c0,0-1.8,0.8-4.6,2c-1.4,0.6-3,1.2-4.8,1.9c-1.8,0.6-3.7,1.3-5.6,2C84.6,13.7,77,16.3,77,16.3
			L77,16.3z"/>
	</g>
	<g id="XMLID_163_">
		<path id="XMLID_49_" class="st3" d="M84.9,5.2c0,0,0.2,2,0.3,3.9c0,0.5,0.1,1,0.1,1.4c0,0.5,0,0.9-0.1,1.3
			c-0.1,0.4-0.1,0.7-0.2,0.9c-0.1,0.2-0.1,0.3-0.1,0.3h-0.1c0,0,0-0.1-0.1-0.3c-0.1-0.2-0.1-0.5-0.2-0.9c-0.1-0.4-0.1-0.8-0.1-1.3
			c0-0.5,0.1-1,0.1-1.4C84.6,7.1,84.8,5.2,84.9,5.2L84.9,5.2z"/>
	</g>
	<g id="XMLID_160_">
		<path id="XMLID_47_" class="st3" d="M84.8,5.2c0,0-0.2-0.1-0.3-0.2c0,0-0.1-0.1-0.1-0.1c0,0,0,0,0.1-0.1c0.1,0,0.3-0.1,0.3-0.1
			h0.1c0,0,0.2,0,0.3,0.1c0.1,0,0.1,0,0.1,0.1c0,0-0.1,0.1-0.1,0.1C85,5.1,84.9,5.2,84.8,5.2L84.8,5.2z"/>
	</g>
	<g id="XMLID_157_">
		<path id="XMLID_45_" class="st3" d="M77,16.2c0,0,1.8,29.5,3.5,58.9c0.4,7.4,0.9,14.7,1.3,21.6c0.2,3.5,0.4,6.8,0.5,10
			c0.1,3.2,0.3,6.2,0.4,8.9c0.2,5.5,0.5,10.1,0.6,13.4c0.1,3.2,0.2,5.1,0.2,5.1l-0.1,0c0,0-0.1-1.8-0.4-5.1
			c-0.3-3.2-0.5-7.8-0.9-13.3c-0.2-2.8-0.4-5.8-0.6-8.9c-0.2-3.2-0.4-6.5-0.6-10c-0.4-6.9-0.7-14.3-1.1-21.6
			C78.5,45.7,77,16.2,77,16.2L77,16.2z"/>
	</g>
	<g id="XMLID_142_">
		<path id="XMLID_43_" class="st3" d="M83.4,133.6c0,0,4.9-2.6,9.9-5.1c1.2-0.6,2.5-1.3,3.6-1.9c1.2-0.6,2.3-1,3.2-1.5
			c1.9-0.8,3.2-1.3,3.2-1.3l0,0.1c0,0-1.2,0.7-3,1.7c-0.9,0.5-2,1.1-3.2,1.6c-1.2,0.5-2.5,1.1-3.7,1.7
			C88.6,131.4,83.5,133.7,83.4,133.6L83.4,133.6z"/>
	</g>
	<g id="XMLID_130_">
		<path id="XMLID_41_" class="st3" d="M107.3,5.1c0,0,1.2-0.6,2.3-1.1c0.3-0.1,0.6-0.3,0.9-0.4c0.3-0.1,0.6-0.2,0.8-0.2
			c0.2,0,0.5,0,0.6,0c0.1,0,0.2,0,0.2,0l0,0.1c0,0-0.1,0.1-0.2,0.2c-0.1,0.1-0.3,0.2-0.5,0.4c-0.2,0.1-0.5,0.3-0.7,0.4
			c-0.3,0.1-0.6,0.2-0.9,0.2C108.6,4.9,107.3,5.2,107.3,5.1L107.3,5.1z"/>
	</g>
	<g id="XMLID_127_">
		<path id="XMLID_39_" class="st3" d="M112.2,3.4c0,0,0.7,7.7,1.4,15.4c0.2,1.9,0.3,3.9,0.5,5.7c0.1,1.8,0.2,3.5,0.3,5
			c0.1,2.9,0.1,4.8,0.1,4.8l-0.1,0c0,0-0.3-1.9-0.6-4.8c-0.1-1.4-0.3-3.1-0.4-4.9c-0.1-1.8-0.2-3.7-0.3-5.7
			C112.5,11.2,112.1,3.4,112.2,3.4L112.2,3.4z"/>
	</g>
	<g id="XMLID_109_">
		<path id="XMLID_37_" class="st3" d="M60.3,134.4c0,0,1.5,0.2,3.7,0.3c2.2,0.1,5.1,0.2,8.1,0.1c0.7,0,1.5-0.1,2.2-0.1
			c0.7-0.1,1.4-0.1,2.1-0.2c0.7-0.1,1.3-0.1,2-0.2c0.6-0.1,1.2-0.1,1.8-0.2c0.5-0.1,1-0.1,1.5-0.2c0.4-0.1,0.8-0.1,1.1-0.2
			c0.6-0.1,1-0.1,1-0.1l0,0.1c0,0-0.4,0.1-1,0.3c-0.6,0.2-1.5,0.4-2.6,0.7c-0.5,0.1-1.1,0.2-1.8,0.3c-0.6,0.1-1.3,0.2-2,0.2
			c-0.7,0.1-1.4,0.1-2.1,0.1c-0.7,0-1.5,0-2.2,0c-3,0-5.9-0.2-8.1-0.4C61.7,134.7,60.3,134.5,60.3,134.4L60.3,134.4z"/>
	</g>
	<g id="XMLID_4_">
		<path id="XMLID_35_" class="st3" d="M55.2,16.3c0,0,1.5,0.2,3.7,0.3c2.2,0.1,5.1,0.2,8.1,0.1c0.7,0,1.5-0.1,2.2-0.1
			c0.7-0.1,1.4-0.1,2.1-0.2c0.7-0.1,1.3-0.1,2-0.2c0.6-0.1,1.2-0.1,1.8-0.2c0.5-0.1,1-0.1,1.5-0.2c0.4-0.1,0.8-0.1,1.1-0.2
			c0.6-0.1,1-0.1,1-0.1l0,0.1c0,0-0.4,0.1-1,0.3c-0.6,0.2-1.5,0.4-2.6,0.7c-0.5,0.1-1.1,0.2-1.8,0.3c-0.6,0.1-1.3,0.2-2,0.2
			c-0.7,0.1-1.4,0.1-2.1,0.1c-0.7,0-1.5,0-2.2,0c-3,0-5.9-0.2-8.1-0.4C56.6,16.6,55.2,16.4,55.2,16.3L55.2,16.3z"/>
	</g>
</g>
<g id="XMLID_7_">
	<g id="XMLID_154_">
		<path id="XMLID_33_" class="st4" d="M80.3,47.6c0,0,6.9,22.2,13.8,44.4c1.7,5.6,3.5,11.1,5,16.3c0.8,2.6,1.6,5.1,2.3,7.5
			c0.7,2.4,1.4,4.7,2,6.8c2.4,8.4,4,14,4,14l-0.1,0c0,0-1.8-5.5-4.5-13.8c-0.7-2.1-1.4-4.3-2.1-6.7c-0.7-2.4-1.5-4.9-2.3-7.5
			c-1.6-5.2-3.2-10.8-4.9-16.4C86.9,69.9,80.2,47.6,80.3,47.6L80.3,47.6z"/>
	</g>
	<g id="XMLID_151_">
		<path id="XMLID_31_" class="st4" d="M80.2,47.5c0,0,3.6-1.4,7.3-2.7c0.9-0.3,1.8-0.7,2.7-1c0.9-0.3,1.7-0.5,2.4-0.7
			c1.4-0.4,2.4-0.5,2.4-0.5l0,0.1c0,0-0.9,0.5-2.2,1c-0.7,0.3-1.5,0.6-2.3,0.9c-0.9,0.3-1.8,0.6-2.7,0.8
			C84,46.5,80.3,47.6,80.2,47.5L80.2,47.5z"/>
	</g>
	<g id="XMLID_148_">
		<path id="XMLID_29_" class="st4" d="M95,42.6c0,0,7.5,22.4,14.9,44.8c1.9,5.6,3.7,11.2,5.5,16.5c0.9,2.6,1.7,5.2,2.5,7.6
			c0.8,2.4,1.5,4.7,2.2,6.8c2.7,8.5,4.3,14.1,4.3,14.1l-0.1,0c0,0-2-5.6-4.8-14c-0.7-2.1-1.5-4.4-2.3-6.8c-0.8-2.4-1.6-5-2.5-7.6
			c-1.7-5.3-3.5-10.9-5.3-16.5C102.2,65.1,95,42.6,95,42.6L95,42.6z"/>
	</g>
	<g id="XMLID_145_">
		<path id="XMLID_27_" class="st4" d="M107.3,136.5c0,0,4.2-1.3,8.4-2.5c1-0.3,2.1-0.6,3.1-0.9c1-0.3,1.9-0.5,2.7-0.6
			c1.6-0.3,2.7-0.5,2.7-0.5l0,0.1c0,0-1,0.4-2.6,1c-0.8,0.3-1.7,0.6-2.7,0.8c-1,0.3-2.1,0.5-3.1,0.8
			C111.6,135.6,107.3,136.6,107.3,136.5L107.3,136.5z"/>
	</g>
	<g id="XMLID_139_">
		<path id="XMLID_25_" class="st4" d="M95,42.5c0,0,8-3.6,16-7.1c2-0.9,4-1.8,5.9-2.6c1.9-0.8,3.7-1.5,5.2-2.1
			c3.1-1.2,5.1-1.9,5.1-1.9l0,0.1c0,0-2,1-4.9,2.4c-1.5,0.7-3.2,1.5-5.1,2.3c-1.9,0.8-3.9,1.6-6,2.4C103.1,39.3,95,42.6,95,42.5
			L95,42.5z"/>
	</g>
	<g id="XMLID_136_">
		<path id="XMLID_101_" class="st4" d="M80.2,47.5c0,0,7.4-3.4,14.8-6.9c1.8-0.9,3.7-1.7,5.4-2.5c1.7-0.8,3.4-1.5,4.8-2
			c2.8-1.1,4.8-1.8,4.8-1.8l0,0.1c0,0-1.8,1-4.5,2.3c-1.4,0.7-3,1.4-4.7,2.2c-1.8,0.7-3.6,1.5-5.5,2.3
			C87.8,44.4,80.3,47.6,80.2,47.5L80.2,47.5z"/>
	</g>
	<g id="XMLID_133_">
		<line id="XMLID_20_" class="st5" x1="107.3" y1="5.2" x2="107.3" y2="5.2"/>
	</g>
	<g id="XMLID_124_">
		<path id="XMLID_18_" class="st4" d="M127.3,28.8c0,0,7.6,21,15.2,42c1.9,5.2,3.8,10.5,5.6,15.4c0.9,2.5,1.7,4.8,2.5,7.1
			c0.8,2.3,1.5,4.4,2.2,6.4c2.7,7.9,4.4,13.2,4.4,13.2l-0.1,0c0,0-2-5.2-4.9-13.1c-0.7-2-1.5-4.1-2.3-6.3c-0.8-2.3-1.7-4.6-2.5-7.1
			c-1.8-4.9-3.6-10.2-5.4-15.5C134.6,49.9,127.2,28.8,127.3,28.8L127.3,28.8z"/>
	</g>
	<g id="XMLID_121_">
		<path id="XMLID_16_" class="st4" d="M124.2,132c0,0,8.1-5,16.3-10c2-1.2,4.1-2.5,6-3.7c1.9-1.1,3.7-2.2,5.3-3
			c3.1-1.7,5.3-2.8,5.3-2.8l0,0.1c0,0-2,1.4-5,3.3c-1.5,0.9-3.3,2.1-5.2,3.2c-1.9,1.1-4,2.3-6.1,3.5
			C132.5,127.3,124.2,132,124.2,132L124.2,132z"/>
	</g>
	<g id="XMLID_118_">
		<path id="XMLID_21_" class="st4" d="M110,33.9c0,0,0.2,0.5,0.3,1c0,0.1,0.1,0.3,0.1,0.4c0,0.1,0,0.2-0.1,0.3
			c-0.1,0.1-0.1,0.2-0.2,0.2c0,0.1-0.1,0.1-0.1,0.1l-0.1,0c0,0,0,0-0.1-0.1c-0.1-0.1-0.1-0.1-0.2-0.2c-0.1-0.1-0.1-0.2-0.1-0.3
			c0-0.1,0-0.3,0.1-0.4C109.8,34.5,110,33.9,110,33.9L110,33.9z"/>
	</g>
</g>
<g id="XMLID_5_">
</g>
<g id="XMLID_111_">
</g>
<g id="XMLID_113_">
</g>
<g id="XMLID_114_">
</g>
<g id="XMLID_116_">
</g>
<g id="XMLID_117_">
</g>
</svg>
